<svg width="20" height="21" viewBox="0 0 20 21" fill="none" xmlns="http://www.w3.org/2000/svg">
<path d="M12.665 14.859C13.334 14.173 14.883 13.228 15.167 10.863C15.2804 10.1388 15.2426 9.39895 15.0558 8.69012C14.8691 7.98128 14.5376 7.31881 14.0821 6.74446C13.6267 6.17012 13.0572 5.69635 12.4095 5.35302C11.7619 5.0097 11.0502 4.80426 10.3192 4.74967C9.58821 4.69507 8.85384 4.79249 8.16238 5.0358C7.47093 5.2791 6.83737 5.66301 6.30165 6.16332C5.76592 6.66364 5.33966 7.26951 5.04971 7.94274C4.75977 8.61597 4.61243 9.34197 4.617 10.075C4.617 13.026 6.405 14.099 7.165 14.859C7.761 15.473 7.669 15.703 7.669 16.693C7.66207 16.8178 7.68064 16.9426 7.72357 17.06C7.76651 17.1774 7.8329 17.2848 7.91871 17.3756C8.00452 17.4665 8.10795 17.5389 8.22267 17.5885C8.3374 17.6381 8.46102 17.6638 8.586 17.664H11.244C11.3691 17.6642 11.4928 17.6388 11.6077 17.5894C11.7226 17.5399 11.8261 17.4675 11.912 17.3765C11.9978 17.2856 12.0641 17.178 12.1067 17.0604C12.1494 16.9429 12.1675 16.8178 12.16 16.693C12.115 15.684 11.995 15.547 12.665 14.859Z" stroke="#14B8A6" stroke-width="1.5" stroke-linecap="round" stroke-linejoin="round"/>
<path d="M8.375 17.609V19.121C8.375 19.534 8.605 19.873 8.888 19.873H10.941C11.226 19.873 11.455 19.533 11.455 19.121V17.609M9.135 7.069C8.54454 7.06927 7.97835 7.30401 7.56092 7.72163C7.14349 8.13924 6.909 8.70554 6.909 9.296M17.247 10.277H19.081M15.401 4.265L16.702 2.964M16.401 15.373L17.702 16.673M9.915 0.75V2.233M3.155 2.963L4.447 4.265M2.155 16.673L3.447 15.373M2.583 10.277H0.75" stroke="#14B8A6" stroke-width="1.5" stroke-linecap="round" stroke-linejoin="round"/>
</svg>
